<svg width="112" height="18" viewBox="0 0 112 18" fill="none" xmlns="http://www.w3.org/2000/svg">
<path d="M9.19954 1.47947L11.092 5.4704C11.2236 5.74798 11.478 5.94031 11.7724 5.98475L16.0042 6.62477C16.7455 6.73697 17.0413 7.68479 16.5051 8.22865L13.4429 11.3351C13.2301 11.5511 13.1328 11.8626 13.1832 12.1675L13.906 16.554C14.0327 17.3223 13.2578 17.908 12.5949 17.5456L8.80999 15.4747C8.54679 15.3308 8.23214 15.3308 7.96894 15.4747L4.18404 17.5456C3.52114 17.9084 2.74624 17.3223 2.87294 16.554L3.59569 12.1675C3.64609 11.8626 3.54879 11.5511 3.33599 11.3351L0.273837 8.22865C-0.262363 7.68443 0.0333868 6.7366 0.774687 6.62477L5.00654 5.98475C5.30089 5.94031 5.55534 5.74798 5.68694 5.4704L7.57939 1.47947C7.91049 0.780442 8.86809 0.780442 9.19954 1.47947Z" fill="#ED8A19"/>
<path d="M32.9993 1.47947L34.8918 5.4704C35.0234 5.74798 35.2778 5.94031 35.5722 5.98475L39.804 6.62477C40.5453 6.73697 40.8411 7.68479 40.3049 8.22865L37.2427 11.3351C37.0299 11.5511 36.9326 11.8626 36.983 12.1675L37.7058 16.554C37.8325 17.3223 37.0576 17.908 36.3947 17.5456L32.6098 15.4747C32.3466 15.3308 32.0319 15.3308 31.7687 15.4747L27.9838 17.5456C27.3209 17.9084 26.546 17.3223 26.6727 16.554L27.3955 12.1675C27.4459 11.8626 27.3486 11.5511 27.1358 11.3351L24.0736 8.22865C23.5374 7.68443 23.8332 6.7366 24.5745 6.62477L28.8063 5.98475C29.1007 5.94031 29.3551 5.74798 29.4867 5.4704L31.3792 1.47947C31.7103 0.780442 32.6679 0.780442 32.9993 1.47947Z" fill="#ED8A19"/>
<path d="M80.5994 1.47947L82.4919 5.4704C82.6235 5.74798 82.8779 5.94031 83.1723 5.98475L87.4041 6.62477C88.1454 6.73697 88.4412 7.68479 87.905 8.22865L84.8428 11.3351C84.63 11.5511 84.5327 11.8626 84.5831 12.1675L85.3059 16.554C85.4326 17.3223 84.6577 17.908 83.9948 17.5456L80.2099 15.4747C79.9467 15.3308 79.632 15.3308 79.3688 15.4747L75.5839 17.5456C74.921 17.9084 74.1461 17.3223 74.2728 16.554L74.9956 12.1675C75.046 11.8626 74.9487 11.5511 74.7359 11.3351L71.6737 8.22865C71.1375 7.68443 71.4333 6.7366 72.1746 6.62477L76.4064 5.98475C76.7008 5.94031 76.9552 5.74798 77.0868 5.4704L78.9793 1.47947C79.3104 0.780442 80.268 0.780442 80.5994 1.47947Z" fill="#ED8A19"/>
<path d="M56.7996 1.47947L58.6921 5.4704C58.8237 5.74798 59.0781 5.94031 59.3725 5.98475L63.6043 6.62477C64.3456 6.73697 64.6414 7.68479 64.1052 8.22865L61.043 11.3351C60.8302 11.5511 60.7329 11.8626 60.7833 12.1675L61.5061 16.554C61.6328 17.3223 60.8579 17.908 60.195 17.5456L56.4101 15.4747C56.1469 15.3308 55.8322 15.3308 55.569 15.4747L51.7841 17.5456C51.1212 17.9084 50.3463 17.3223 50.473 16.554L51.1958 12.1675C51.2462 11.8626 51.1489 11.5511 50.9361 11.3351L47.8739 8.22865C47.3377 7.68443 47.6335 6.7366 48.3748 6.62477L52.6066 5.98475C52.901 5.94031 53.1554 5.74798 53.287 5.4704L55.1795 1.47947C55.5106 0.780442 56.4682 0.780442 56.7996 1.47947Z" fill="#ED8A19"/>
<path d="M104.4 1.47947L106.292 5.4704C106.424 5.74798 106.678 5.94031 106.973 5.98475L111.204 6.62477C111.946 6.73697 112.241 7.68479 111.705 8.22865L108.643 11.3351C108.43 11.5511 108.333 11.8626 108.383 12.1675L109.106 16.554C109.233 17.3223 108.458 17.908 107.795 17.5456L104.01 15.4747C103.747 15.3308 103.432 15.3308 103.169 15.4747L99.3842 17.5456C98.7213 17.9084 97.9464 17.3223 98.0731 16.554L98.7959 12.1675C98.8463 11.8626 98.749 11.5511 98.5362 11.3351L95.474 8.22865C94.9378 7.68443 95.2336 6.7366 95.9749 6.62477L100.207 5.98475C100.501 5.94031 100.756 5.74798 100.887 5.4704L102.78 1.47947C103.111 0.780442 104.068 0.780442 104.4 1.47947Z" fill="#ED8A19"/>
</svg>
